<svg width="512" height="136" viewBox="0 0 512 136" fill="none" xmlns="http://www.w3.org/2000/svg">
<path d="M313.531 40.918L289.672 37.4492C285.574 36.8477 281.769 39.6953 281.172 43.793C280.578 47.8945 283.418 51.6992 287.515 52.293L311.015 55.7109L289.09 77.0859C285.594 80.4922 284 85.3945 284.828 90.2031L290 120.387L262.898 106.137C258.578 103.867 253.422 103.867 249.101 106.137L221.996 120.387L227.172 90.2031C228 85.3945 226.402 80.4922 222.91 77.082L200.984 55.7109L231.289 51.3047C236.117 50.6016 240.289 47.5742 242.449 43.1992L256 15.7383L260.086 24.0156C261.918 27.7266 266.414 29.25 270.129 27.4219C273.844 25.5859 275.371 21.0898 273.535 17.375L269.293 8.77734C266.777 3.67969 261.683 0.511719 256 0.511719C250.316 0.511719 245.223 3.67969 242.707 8.77344L229.039 36.4727L198.469 40.918C192.848 41.7305 188.262 45.5977 186.504 51.0039C184.746 56.4063 186.183 62.2305 190.254 66.1992L212.375 87.7578L207.152 118.203C206.191 123.805 208.449 129.359 213.047 132.703C215.644 134.59 218.683 135.547 221.746 135.547C224.101 135.547 226.469 134.98 228.656 133.828L256 119.453L283.34 133.828C288.371 136.477 294.351 136.039 298.949 132.703C303.547 129.359 305.808 123.805 304.848 118.203L299.625 87.7578L321.746 66.1953C325.816 62.2305 327.25 56.4063 325.496 51.0039C323.738 45.5977 319.156 41.7344 313.531 40.918V40.918Z" fill="black"/>
<path d="M414.773 55.7891L399.5 53.5664L392.668 39.7266C390.703 35.7461 386.726 33.2734 382.289 33.2734C377.851 33.2734 373.871 35.7461 371.91 39.7227L365.078 53.5664L349.797 55.7891C345.406 56.4297 341.828 59.4453 340.457 63.668C339.086 67.8867 340.207 72.4336 343.386 75.5312L354.441 86.3047L351.832 101.52C351.082 105.895 352.843 110.23 356.433 112.84C358.465 114.312 360.836 115.062 363.226 115.062C365.066 115.062 366.914 114.617 368.621 113.723L382.285 106.539L395.949 113.723C399.879 115.785 404.551 115.449 408.14 112.84C411.73 110.23 413.492 105.895 412.742 101.52L410.133 86.3047L421.187 75.5312C424.363 72.4336 425.488 67.8867 424.117 63.668C422.746 59.4453 419.168 56.4258 414.773 55.7891V55.7891ZM398.375 76.8203C395.648 79.4805 394.402 83.3086 395.047 87.0664L396.789 97.2148L387.672 92.4219C384.301 90.6484 380.273 90.6484 376.902 92.4219L367.785 97.2148L369.527 87.0664C370.172 83.3086 368.926 79.4766 366.199 76.8203L358.824 69.6328L369.011 68.1523C372.785 67.6055 376.043 65.2383 377.73 61.8203L382.285 52.5898L386.843 61.8242C388.531 65.2422 391.789 67.6055 395.558 68.1523L405.75 69.6328L398.375 76.8203Z" fill="black"/>
<path d="M511.437 30.7383C510.093 26.6016 506.582 23.6484 502.281 23.0234L488.105 20.9609L481.765 8.11328C479.84 4.21484 475.941 1.79297 471.593 1.79297C467.246 1.79297 463.351 4.21484 461.425 8.11328L455.086 20.9609L440.91 23.0234C436.605 23.6484 433.097 26.6016 431.754 30.7383C430.41 34.875 431.507 39.332 434.621 42.3672L444.882 52.3672L442.461 66.4883C441.726 70.7734 443.453 75.0234 446.972 77.5781C448.961 79.0234 451.285 79.7578 453.629 79.7578C455.429 79.7578 457.242 79.3203 458.914 78.4414L471.597 71.7773L484.277 78.4414C488.129 80.4648 492.703 80.1328 496.218 77.5781C499.738 75.0234 501.468 70.7734 500.73 66.4883L498.308 52.3672L508.57 42.3672C511.679 39.332 512.781 34.875 511.437 30.7383V30.7383ZM486.461 42.9648C483.789 45.5703 482.566 49.3242 483.199 53.0039L484.691 61.7148L476.871 57.6016C473.566 55.8672 469.625 55.8672 466.316 57.6016L458.496 61.7148L459.992 53.0039C460.621 49.3242 459.402 45.5703 456.73 42.9688L450.402 36.8008L459.144 35.5273C462.839 34.9922 466.035 32.6719 467.683 29.3242L471.597 21.4023L475.507 29.3242C477.16 32.6719 480.351 34.9922 484.047 35.5273L492.793 36.8008L486.461 42.9648Z" fill="black"/>
<path d="M162.199 55.7891L146.922 53.5664L140.09 39.7227C138.129 35.7461 134.148 33.2734 129.711 33.2734C125.273 33.2734 121.297 35.7461 119.332 39.7266L112.504 53.5664L97.2226 55.7891C92.832 56.4297 89.2499 59.4453 87.8827 63.668C86.5117 67.8867 87.6327 72.4336 90.8085 75.5312L101.863 86.3047L99.2538 101.52C98.5038 105.895 100.269 110.23 103.859 112.84C105.887 114.312 108.262 115.062 110.652 115.062C112.488 115.062 114.34 114.617 116.047 113.723L129.711 106.539L143.375 113.723C147.305 115.785 151.976 115.449 155.562 112.84C159.156 110.23 160.918 105.895 160.168 101.52L157.559 86.3047L168.613 75.5312C171.789 72.4336 172.91 67.8867 171.543 63.668C170.176 59.4453 166.594 56.4258 162.199 55.7891V55.7891ZM145.801 76.8203C143.074 79.4766 141.828 83.3086 142.473 87.0664L144.211 97.2148L135.098 92.4219C133.41 91.5352 131.562 91.0938 129.711 91.0938C127.863 91.0938 126.012 91.5352 124.324 92.4219L115.211 97.2148L116.953 87.0664C117.598 83.3086 116.351 79.4805 113.621 76.8203L106.25 69.6328L116.437 68.1523C120.207 67.6055 123.465 65.2422 125.152 61.8203L129.711 52.5898L134.269 61.8203C135.953 65.2383 139.211 67.6055 142.984 68.1523L153.172 69.6328L145.801 76.8203Z" fill="black"/>
<path d="M71.0938 23.0234L56.918 20.9609L50.5742 8.11328C48.6523 4.21484 44.7539 1.79297 40.4062 1.79297C36.0586 1.79297 32.1641 4.21484 30.2383 8.11328L23.8984 20.9609L9.71875 23.0234C5.41797 23.6484 1.90625 26.6016 0.562497 30.7383C-0.781253 34.875 0.320309 39.332 3.43359 42.3672L13.6914 52.3672L11.2695 66.4883C10.5352 70.7734 12.2656 75.0234 15.7812 77.5781C17.7695 79.0234 20.0937 79.7578 22.4375 79.7578C24.2383 79.7578 26.0508 79.3203 27.7227 78.4414L40.4062 71.7773L53.0859 78.4414C56.9375 80.4648 61.5117 80.1328 65.0312 77.5781C68.5469 75.0234 70.2773 70.7734 69.543 66.4883L67.1211 52.3672L77.3789 42.3672C80.4922 39.332 81.5938 34.8789 80.25 30.7422C78.9062 26.6016 75.3945 23.6484 71.0938 23.0234V23.0234ZM55.2734 42.9688C52.6016 45.5703 51.3789 49.3242 52.0117 53.0078L53.5039 61.7148L45.6797 57.6016C44.0273 56.7344 42.2187 56.3008 40.4062 56.3008C38.5937 56.3008 36.7812 56.7344 35.1289 57.6016L27.3086 61.7148L28.8008 53.0078C29.4336 49.3242 28.2148 45.5703 25.5391 42.9688L19.2109 36.8008L27.957 35.5273C31.6523 34.9922 34.8437 32.6719 36.4961 29.3242L40.4062 21.4023L44.3164 29.3242C45.9687 32.6719 49.1602 34.9922 52.8555 35.5273L61.6016 36.8008L55.2734 42.9688Z" fill="black"/>
</svg>
