<svg width="472" height="635" viewBox="0 0 472 635" fill="none" xmlns="http://www.w3.org/2000/svg">
<path d="M413.697 427.073C363.763 374.561 317.498 428.699 317.498 428.699C314.496 432.199 308.355 435.875 303.854 436.864L289.014 440.1C284.512 441.084 277.4 440.288 273.22 438.349C273.22 438.349 208.651 408.287 185.011 476.789C161.377 545.267 190.514 607.918 190.514 607.918C196.616 623.483 207.514 632.385 223.371 627.523C239.183 622.677 264.993 572.99 264.993 572.99C267.127 568.895 272.561 564.746 277.053 563.77L366.033 544.416C370.53 543.439 377.191 544.959 380.827 547.8C380.827 547.8 424.936 582.292 441.359 580.133C457.783 577.979 464.022 565.341 463.1 548.662C463.095 548.663 463.629 479.575 413.697 427.073ZM276.613 508.441L257.533 512.587L261.534 530.998C261.534 530.998 258.165 534.965 251.895 536.246C245.632 537.509 242.095 534.847 242.095 534.847L238.173 516.8L220.152 520.716C220.152 520.716 217.402 518.897 215.478 512.949C213.565 507 215.577 501.417 215.577 501.417L234.663 497.269L230.511 478.166C230.511 478.166 233.98 475.207 239.66 474.142C245.349 473.091 249.95 474.318 249.95 474.318L253.944 493.073L271.965 489.157C271.965 489.157 275.992 492.518 277.314 497.349C278.636 502.185 276.613 508.441 276.613 508.441ZM368.692 510.406C360.336 512.222 352.13 506.921 350.314 498.565C348.495 490.194 353.764 481.982 362.12 480.166C370.44 478.357 378.694 483.631 380.514 492.002C382.331 500.363 377.012 508.597 368.692 510.406ZM359.651 468.805C351.295 470.621 343.09 465.325 341.274 456.97C339.455 448.599 344.724 440.386 353.08 438.57C361.4 436.762 369.654 442.036 371.474 450.407C373.291 458.767 367.971 466.997 359.651 468.805ZM402.115 482.963C393.758 484.779 385.554 479.483 383.737 471.123C381.919 462.757 387.187 454.539 395.543 452.723C403.862 450.915 412.118 456.194 413.936 464.559C415.753 472.92 410.434 481.155 402.115 482.963Z" fill="#414345"/>
<path d="M94.7485 90.5047L113.643 85.7062L94.3606 198.276L70.1628 204.421L59.0195 131.317L46.7936 210.356L22.5958 216.502L5.08395 113.277L24.8068 108.268L34.8616 193.081L49.3361 102.038L69.3905 96.9448L82.2629 181.042L94.7485 90.5047ZM145.899 101.404L150.871 100.141C162.252 97.2504 167.896 101.448 167.803 112.734L167.253 179.763L148.359 184.562L148.886 120.268C148.901 118.444 148.58 117.331 147.921 116.93C147.264 116.414 146.051 116.381 144.284 116.83L139.311 118.093C135.886 118.963 134.158 121.278 134.127 125.04L133.608 188.308L114.88 193.065L115.818 78.6694L134.547 73.913L134.238 111.532C135.935 106.323 139.822 102.947 145.899 101.404ZM192.374 89.6003L209.942 85.1385C221.876 82.1079 227.796 86.2354 227.703 97.521L227.452 128.129L192.15 137.095L192.008 154.365C191.993 156.189 192.259 157.373 192.806 157.916C193.464 158.318 194.733 158.28 196.611 157.803L204.235 155.867C206.003 155.418 207.221 154.824 207.888 154.086C208.557 153.234 208.899 151.896 208.913 150.072L208.965 143.745L227.197 139.115L227.126 147.664C227.034 158.95 220.966 166.122 208.922 169.181L191.685 173.558C179.642 176.617 173.666 172.504 173.759 161.218L174.17 111.117C174.262 99.8311 180.33 92.659 192.374 89.6003ZM192.252 124.612L209.489 120.234L209.621 104.161C209.636 102.337 209.314 101.224 208.656 100.823C207.999 100.307 206.786 100.274 205.018 100.723L197.063 102.743C195.295 103.192 194.077 103.843 193.408 104.695C192.74 105.433 192.399 106.715 192.384 108.539L192.252 124.612ZM263.741 71.4753L268.713 70.2125C280.094 67.3222 285.738 71.5199 285.646 82.8055L285.096 149.835L266.202 154.634L266.729 90.3399C266.744 88.516 266.422 87.4032 265.764 87.0016C265.107 86.486 263.894 86.4526 262.126 86.9016L257.154 88.1644C253.729 89.0343 252.001 91.3502 251.97 95.1121L251.451 158.38L232.722 163.136L233.411 79.1782L251.974 74.4639L251.911 82.1586C253.5 76.6359 257.443 73.0748 263.741 71.4753Z" fill="#414345"/>
<path d="M65.8036 245.252L46.5779 250.134L46.6943 235.942C46.7093 234.118 46.3877 233.005 45.7294 232.604C45.072 232.088 43.8594 232.055 42.0915 232.504L34.3018 234.482C32.534 234.931 31.3157 235.582 30.6472 236.434C29.9795 237.172 29.6382 238.453 29.6233 240.277L29.0482 310.385C29.0332 312.209 29.3544 313.379 30.0117 313.894C30.67 314.296 31.8831 314.272 33.651 313.823L41.4407 311.845C43.2086 311.396 44.4263 310.802 45.0939 310.064C45.7625 309.212 46.1043 307.874 46.1192 306.05L46.3156 282.11L38.0287 284.215L38.1423 270.364L65.6549 263.377L65.3281 303.219C65.2355 314.504 59.1674 321.677 47.1237 324.735L27.7323 329.66C15.6886 332.719 9.7131 328.605 9.80568 317.32L10.4144 243.108C10.507 231.823 16.5751 224.65 28.6188 221.592L48.0102 216.667C60.0539 213.608 66.0294 217.722 65.9368 229.007L65.8036 245.252ZM105.328 225.999L123.89 221.285L123.202 305.243L104.307 310.042L104.366 302.86C102.67 308.069 98.8381 311.431 92.8715 312.946L87.7336 314.251C76.4634 317.113 70.8746 312.902 70.9672 301.616L71.3782 251.515C71.4707 240.229 77.1521 233.155 88.4224 230.293L93.5603 228.988C100.079 227.332 103.979 229.072 105.26 234.207L105.328 225.999ZM94.3209 297.562L99.293 296.299C102.718 295.429 104.446 293.113 104.477 289.352L104.826 246.774C104.857 243.012 103.16 241.566 99.7349 242.436L94.7627 243.699C92.9948 244.148 91.7766 244.798 91.1081 245.651C90.4404 246.389 90.0991 247.67 90.0842 249.494L89.7181 294.124C89.7031 295.948 90.0243 297.117 90.6816 297.633C91.3399 298.035 92.553 298.011 94.3209 297.562ZM195.084 203.204L200.222 201.899C211.492 199.037 217.081 203.249 216.988 214.534L216.439 281.564L197.71 286.321L198.238 222.027C198.253 220.203 197.931 219.09 197.273 218.688C196.615 218.173 195.403 218.139 193.635 218.588L188.663 219.851C185.237 220.721 183.509 223.037 183.478 226.799L182.959 290.067L164.065 294.865L164.593 230.571C164.608 228.748 164.286 227.635 163.628 227.233C162.97 226.718 161.758 226.684 159.99 227.133L155.018 228.396C151.592 229.266 149.864 231.582 149.834 235.344L149.315 298.612L130.586 303.368L131.275 219.41L149.838 214.695L149.774 222.39C151.363 216.867 155.307 213.306 161.605 211.707L166.577 210.444C174.754 208.368 179.923 209.899 182.086 215.037C183.68 208.944 188.013 205 195.084 203.204ZM241.099 191.518L258.667 187.056C270.6 184.026 276.52 188.153 276.428 199.439L276.177 230.047L240.874 239.012L240.733 256.283C240.718 258.107 240.984 259.291 241.531 259.834C242.189 260.236 243.457 260.198 245.335 259.721L252.959 257.785C254.727 257.336 255.945 256.742 256.613 256.004C257.281 255.151 257.623 253.813 257.638 251.989L257.69 245.663L275.921 241.032L275.851 249.582C275.758 260.868 269.69 268.04 257.647 271.099L240.41 275.476C228.366 278.535 222.391 274.421 222.483 263.136L222.894 213.035C222.987 201.749 229.055 194.577 241.099 191.518ZM240.977 226.53L258.214 222.152L258.345 206.079C258.36 204.255 258.039 203.142 257.38 202.74C256.723 202.225 255.51 202.191 253.743 202.64L245.787 204.661C244.019 205.11 242.801 205.761 242.132 206.613C241.465 207.351 241.124 208.632 241.109 210.456L240.977 226.53Z" fill="#414345"/>
<path d="M27.9019 410.792L27.5568 452.857L8.4969 457.697L9.38201 349.8L47.8333 340.035C59.877 336.976 65.8525 341.089 65.76 352.375L65.4977 384.351C65.421 393.699 61.3431 400.195 53.2641 403.839L70.3174 441.997L49.7658 447.217L34.2 409.193L27.9019 410.792ZM28.3185 360.007L28.0211 396.258L41.7774 392.764C43.5453 392.315 44.7631 391.721 45.4307 390.983C46.0992 390.131 46.441 388.793 46.456 386.969L46.6776 359.952C46.6926 358.128 46.3709 357.015 45.7126 356.613C45.0553 356.098 43.8427 356.064 42.0748 356.513L28.3185 360.007ZM90.18 353.169L107.748 348.708C119.681 345.677 125.602 349.804 125.509 361.09L125.258 391.698L89.9557 400.664L89.8141 417.934C89.7991 419.758 90.0651 420.942 90.6119 421.486C91.2702 421.887 92.5385 421.849 94.4169 421.372L102.041 419.436C103.809 418.987 105.026 418.393 105.694 417.655C106.363 416.803 106.704 415.465 106.719 413.641L106.771 407.314L125.003 402.684L124.932 411.233C124.84 422.519 118.772 429.691 106.728 432.75L89.4912 437.128C77.4476 440.186 71.472 436.073 71.5646 424.787L71.9756 374.686C72.0682 363.4 78.1363 356.228 90.18 353.169ZM90.0581 388.181L107.295 383.804L107.427 367.73C107.442 365.906 107.12 364.793 106.462 364.392C105.804 363.876 104.592 363.843 102.824 364.292L94.8686 366.312C93.1007 366.761 91.8825 367.412 91.2139 368.264C90.5463 369.003 90.205 370.284 90.19 372.108L90.0581 388.181ZM149.257 421.949L130.528 426.705L131.467 312.31L150.195 307.554L149.257 421.949ZM174.843 331.668L192.411 327.206C204.344 324.175 210.264 328.303 210.172 339.589L209.921 370.196L174.618 379.162L174.477 396.433C174.462 398.256 174.728 399.44 175.274 399.984C175.933 400.386 177.201 400.348 179.079 399.871L186.703 397.935C188.471 397.486 189.689 396.892 190.357 396.154C191.025 395.301 191.367 393.963 191.382 392.139L191.434 385.812L209.665 381.182L209.595 389.732C209.502 401.018 203.434 408.19 191.391 411.248L174.154 415.626C162.11 418.685 156.135 414.571 156.227 403.286L156.638 353.184C156.731 341.899 162.799 334.727 174.843 331.668ZM174.721 366.68L191.958 362.302L192.089 346.229C192.104 344.405 191.783 343.292 191.124 342.89C190.467 342.375 189.254 342.341 187.487 342.79L179.531 344.811C177.763 345.26 176.545 345.91 175.876 346.763C175.209 347.501 174.868 348.782 174.853 350.606L174.721 366.68ZM248.53 312.954L267.093 308.239L266.404 392.197L247.51 396.996L247.569 389.814C245.872 395.023 242.041 398.385 236.074 399.9L230.936 401.205C219.666 404.067 214.077 399.856 214.17 388.57L214.581 338.469C214.673 327.183 220.355 320.109 231.625 317.247L236.763 315.942C243.282 314.286 247.182 316.026 248.463 321.161L248.53 312.954ZM237.523 384.516L242.495 383.253C245.921 382.383 247.649 380.067 247.68 376.306L248.029 333.728C248.06 329.966 246.363 328.52 242.937 329.39L237.965 330.653C236.197 331.102 234.979 331.753 234.311 332.605C233.643 333.343 233.302 334.624 233.287 336.448L232.921 381.078C232.906 382.902 233.227 384.072 233.884 384.587C234.542 384.989 235.755 384.965 237.523 384.516ZM303.441 364.362L303.538 352.564C303.553 350.74 303.232 349.627 302.573 349.225C301.916 348.71 300.648 348.69 298.77 349.167L289.82 351.44C277.997 354.443 272.132 350.358 272.223 339.187L272.35 323.797C272.442 312.512 278.51 305.34 290.554 302.281L303.647 298.956C315.58 295.925 321.501 300.052 321.408 311.338L321.344 319.204L303.278 323.792L303.33 317.465C303.345 315.641 303.023 314.528 302.365 314.127C301.708 313.611 300.495 313.578 298.727 314.027L295.412 314.869C293.534 315.346 292.261 316.01 291.592 316.863C290.924 317.601 290.583 318.882 290.568 320.706L290.467 333.018C290.452 334.842 290.773 336.011 291.431 336.527C292.089 336.929 293.357 336.891 295.236 336.414L304.186 334.141C316.119 331.11 322.039 335.181 321.948 346.352L321.826 361.229C321.733 372.515 315.665 379.687 303.621 382.745L290.197 386.155C278.153 389.214 272.177 385.1 272.27 373.815L272.333 366.12L290.73 361.448L290.68 367.603C290.665 369.427 290.986 370.597 291.643 371.113C292.301 371.514 293.515 371.491 295.282 371.042L298.597 370.2C300.476 369.723 301.749 369.115 302.416 368.377C303.085 367.524 303.427 366.186 303.441 364.362ZM345.132 288.42L362.701 283.958C374.634 280.927 380.554 285.055 380.462 296.34L380.21 326.948L344.908 335.914L344.766 353.184C344.751 355.008 345.017 356.192 345.564 356.736C346.223 357.137 347.491 357.1 349.369 356.623L356.993 354.686C358.761 354.237 359.979 353.644 360.646 352.905C361.315 352.053 361.657 350.715 361.672 348.891L361.724 342.564L379.955 337.934L379.885 346.484C379.792 357.769 373.724 364.942 361.68 368L344.444 372.378C332.4 375.437 326.424 371.323 326.517 360.038L326.928 309.936C327.021 298.651 333.089 291.478 345.132 288.42ZM345.011 323.431L362.247 319.054L362.379 302.98C362.394 301.156 362.072 300.044 361.414 299.642C360.757 299.126 359.544 299.093 357.776 299.542L349.821 301.563C348.053 302.012 346.835 302.662 346.166 303.515C345.499 304.253 345.157 305.534 345.142 307.358L345.011 323.431Z" fill="#414345"/>
</svg>
